<svg width="323" height="322" viewBox="0 0 323 322" fill="none" xmlns="http://www.w3.org/2000/svg">
<g clip-path="url(#clip0_1_103)">
<path d="M251.022 160.918L232.422 169.628L248.322 182.542L228.222 186.447L240.822 202.665L220.422 201.764L228.522 220.685L208.722 214.979L212.022 235.101L194.622 224.589L192.822 245.012L178.122 230.897L171.822 250.418L161.022 232.999L150.222 250.418L143.922 230.897L129.222 245.012L127.422 224.589L110.022 235.101L113.322 214.678L93.5216 220.685L101.622 201.764L81.2216 202.665L93.8216 186.447L73.7216 182.542L89.6216 169.628L71.0216 160.918L89.6216 152.209L73.7216 139.294L93.8216 135.39L81.2216 118.871L101.622 120.073L93.5216 101.152L113.322 106.858L110.022 86.7354L127.422 96.9469L129.222 76.524L143.922 90.9401L150.222 71.4183L161.022 88.8378L171.822 71.4183L178.122 90.9401L192.822 76.524L194.622 96.9469L212.022 86.7354L208.722 106.858L228.522 101.152L220.422 120.073L240.822 118.871L228.222 135.39L248.322 139.294L232.422 152.209L251.022 160.918Z" fill="#F08261"/>
</g>
<path d="M145.237 136.842C146.238 136.801 147.041 136.26 147.713 134.897C148.961 132.368 147.797 130.478 145.196 129.195C144.496 128.85 143.994 128.602 143.636 128.425L138.811 126.045L132.617 138.6C132.617 138.6 138.93 141.715 140.293 142.387C142.213 143.334 144.393 142.982 145.588 140.561C146.402 138.911 146.172 137.794 145.237 136.842ZM143.177 131.299C144.504 131.953 145.545 132.556 144.925 133.812C144.306 135.067 143.257 134.617 142.002 133.997C141.302 133.652 140.011 133.015 139.006 132.52L140.307 129.883C140.684 130.069 142.477 130.954 143.177 131.299ZM140.008 139.169C139.093 138.718 139.918 139.125 138.842 138.594L136.564 137.47L137.927 134.708C138.662 135.071 140.868 136.159 141.729 136.584C142.985 137.203 143.641 137.772 143.057 138.956C142.42 140.247 141.353 139.832 140.008 139.169ZM159.697 141.567C161.768 137.37 158.413 135.716 156.907 134.972C156.171 134.609 154.172 133.645 153.508 133.318L153.517 133.3L150.791 131.955L144.597 144.51L147.323 145.855L149.385 141.676C149.941 141.95 151.806 142.871 152.272 143.101C152.434 143.18 152.667 143.295 152.936 143.428L152.919 148.616L155.879 150.076L155.846 144.083C157.268 144.049 158.626 143.738 159.697 141.567ZM153.763 140.803C153.53 140.688 151.18 139.529 150.588 139.237L152.305 135.757C153.022 136.111 155.031 137.102 155.533 137.35C156.376 137.766 158.026 138.58 157.168 140.32C156.301 142.077 154.552 141.192 153.763 140.803ZM170.928 141.912L166.354 139.655L155.685 149.98L158.501 151.37L160.272 149.679L166.675 152.838L166.393 155.263L169.227 156.661L170.928 141.912ZM162.381 147.619L167.07 143.086L167.77 143.431L167.008 149.902L162.381 147.619ZM181.128 158.139L180.805 157.979L179.758 146.268L179.507 146.144L179.516 146.126L175.839 144.312L169.645 156.867L172.371 158.212L176.813 149.208L177.118 149.359L178.183 161.079L182.111 163.017L188.305 150.462L185.578 149.117L181.128 158.139ZM194.69 153.612L189.291 150.948L183.097 163.504C183.689 163.796 187.832 165.84 188.496 166.167C193.733 168.751 196.577 165.382 197.772 162.96C198.967 160.539 199.999 156.231 194.69 153.612ZM189.717 163.692C188.461 163.073 187.529 162.612 187.045 162.374L190.787 154.787C190.787 154.787 192.312 155.539 193.46 156.105C196.276 157.494 195.637 160.145 194.938 161.562C194.274 162.907 192.515 165.072 189.717 163.692ZM122.018 150.856C121.067 151.925 119.781 152.227 117.682 151.192C115.53 150.13 114.581 148.302 115.811 145.809C117.041 143.316 119.078 142.938 121.23 144C123.257 145 123.871 146.105 123.594 147.663L126.427 149.061C127.575 146.282 126.1 142.945 122.602 141.22C118.997 139.441 115.138 140.347 113.103 144.473C111.032 148.67 112.706 152.194 116.311 153.972C119.808 155.698 123.221 154.928 124.852 152.254L122.018 150.856ZM135.864 147.762C132.205 145.957 128.31 146.845 126.274 150.971C124.204 155.168 125.913 158.709 129.572 160.515C133.231 162.32 137.117 161.449 139.153 157.324C141.188 153.199 139.522 149.567 135.864 147.762ZM130.944 157.734C128.774 156.664 127.717 154.782 128.947 152.289C130.177 149.796 132.322 149.471 134.492 150.542C136.662 151.613 137.692 153.548 136.48 156.005C135.294 158.409 133.114 158.805 130.944 157.734ZM148.453 165.436L148.13 165.276L147.084 153.565L146.833 153.441L146.841 153.423L143.165 151.609L136.971 164.164L139.697 165.509L144.139 156.505L144.444 156.656L145.508 168.376L149.436 170.314L155.63 157.759L152.904 156.414L148.453 165.436ZM162.357 170.756C161.406 171.826 160.12 172.128 158.021 171.093C155.869 170.031 154.92 168.202 156.15 165.709C157.38 163.216 159.417 162.838 161.569 163.9C163.596 164.9 164.21 166.006 163.932 167.564L166.766 168.962C167.914 166.183 166.438 162.846 162.941 161.12C159.336 159.342 155.476 160.248 153.441 164.373C151.371 168.57 153.044 172.094 156.649 173.873C160.147 175.598 163.56 174.829 165.191 172.154L162.357 170.756ZM169.841 164.77L163.647 177.325L166.373 178.67L173.96 182.413L175.19 179.92L167.603 176.177L168.86 173.63L176.447 177.373L177.659 174.915L170.072 171.173L171.346 168.59L178.933 172.333L180.154 169.857L169.841 164.77ZM186.77 173.121C186.035 172.758 184.537 172.042 183.874 171.715L183.882 171.697L181.156 170.352L174.962 182.907L177.689 184.252L179.414 180.754C179.97 181.029 181.835 181.949 182.302 182.179C183.486 182.763 187.585 184.986 189.894 180.305C192.124 175.785 188.277 173.865 186.77 173.121ZM183.559 179.856C183.326 179.741 181.192 178.688 180.582 178.387L182.714 174.064C183.45 174.427 185.243 175.312 185.746 175.56C186.66 176.011 188.4 176.869 187.33 179.039C186.215 181.299 184.295 180.218 183.559 179.856ZM191.539 178.574L196.274 180.91L191.31 190.972L194.037 192.317L199.001 182.255L203.754 184.6L204.984 182.107L192.769 176.081L191.539 178.574Z" fill="black"/>
<defs>
<clipPath id="clip0_1_103">
<rect width="180" height="179" fill="white" transform="translate(71.0216 71.4183)"/>
</clipPath>
</defs>
</svg>
